<svg xmlns="http://www.w3.org/2000/svg" xmlns:xlink="http://www.w3.org/1999/xlink" width="200" zoomAndPan="magnify" viewBox="0 0 150 141.000003" height="188" preserveAspectRatio="xMidYMid meet" version="1.0"><path fill="#000000" d="M 126.726562 44.539062 C 126.582031 44.273438 126.390625 44.046875 126.15625 43.859375 C 125.921875 43.671875 125.660156 43.535156 125.371094 43.449219 C 125.085938 43.363281 124.792969 43.335938 124.492188 43.367188 C 124.195312 43.394531 123.914062 43.480469 123.648438 43.621094 C 123.382812 43.765625 123.152344 43.949219 122.960938 44.179688 C 122.769531 44.410156 122.625 44.671875 122.535156 44.957031 C 122.445312 45.242188 122.414062 45.535156 122.4375 45.835938 C 122.460938 46.136719 122.542969 46.421875 122.675781 46.6875 C 143.753906 85.484375 114.140625 134.695312 69.957031 134.132812 C 68.007812 134.132812 66.0625 134.035156 64.121094 133.839844 C 62.179688 133.648438 60.253906 133.359375 58.339844 132.976562 C 56.425781 132.59375 54.539062 132.117188 52.671875 131.550781 C 50.804688 130.980469 48.972656 130.324219 47.167969 129.574219 C 45.367188 128.828125 43.605469 127.992188 41.886719 127.070312 C 40.167969 126.148438 38.496094 125.144531 36.875 124.058594 C 35.253906 122.972656 33.6875 121.8125 32.179688 120.570312 C 30.671875 119.332031 29.230469 118.023438 27.851562 116.640625 C 26.472656 115.261719 25.164062 113.816406 23.925781 112.304688 C 22.6875 110.796875 21.527344 109.230469 20.441406 107.605469 C 19.359375 105.980469 18.355469 104.308594 17.4375 102.585938 C 16.515625 100.863281 15.683594 99.101562 14.933594 97.296875 C 14.1875 95.492188 13.53125 93.65625 12.960938 91.789062 C 12.394531 89.917969 11.917969 88.027344 11.539062 86.113281 C 11.15625 84.195312 10.867188 82.265625 10.675781 80.324219 C 10.480469 78.378906 10.382812 76.429688 10.382812 74.476562 C 9.828125 30.234375 58.960938 0.582031 97.710938 21.691406 C 97.980469 21.832031 98.265625 21.917969 98.566406 21.945312 C 98.871094 21.976562 99.167969 21.945312 99.457031 21.855469 C 99.75 21.765625 100.011719 21.625 100.246094 21.433594 C 100.480469 21.238281 100.667969 21.007812 100.808594 20.738281 C 100.953125 20.46875 101.039062 20.183594 101.066406 19.878906 C 101.097656 19.578125 101.066406 19.28125 100.976562 18.988281 C 100.886719 18.699219 100.746094 18.4375 100.550781 18.199219 C 100.359375 17.964844 100.128906 17.777344 99.859375 17.636719 C 98.785156 17.070312 97.699219 16.535156 96.597656 16.03125 C 95.492188 15.527344 94.378906 15.054688 93.25 14.613281 C 92.117188 14.171875 90.976562 13.765625 89.824219 13.390625 C 88.671875 13.011719 87.511719 12.671875 86.339844 12.359375 C 85.167969 12.050781 83.988281 11.773438 82.800781 11.53125 C 81.613281 11.289062 80.417969 11.078125 79.21875 10.90625 C 78.019531 10.730469 76.816406 10.589844 75.609375 10.480469 C 74.402344 10.375 73.191406 10.300781 71.980469 10.265625 C 70.769531 10.226562 69.554688 10.222656 68.34375 10.253906 C 67.132812 10.28125 65.921875 10.347656 64.714844 10.445312 C 63.507812 10.546875 62.300781 10.679688 61.101562 10.847656 C 59.902344 11.015625 58.707031 11.214844 57.515625 11.453125 C 56.328125 11.6875 55.148438 11.957031 53.972656 12.257812 C 52.796875 12.5625 51.632812 12.894531 50.480469 13.265625 C 49.324219 13.632812 48.179688 14.035156 47.046875 14.46875 C 45.917969 14.902344 44.796875 15.367188 43.691406 15.863281 C 42.585938 16.359375 41.496094 16.886719 40.417969 17.445312 C 39.34375 18.003906 38.28125 18.59375 37.242188 19.214844 C 36.199219 19.832031 35.171875 20.480469 34.167969 21.15625 C 33.160156 21.835938 32.175781 22.539062 31.210938 23.273438 C 30.242188 24.003906 29.296875 24.765625 28.375 25.550781 C 27.453125 26.339844 26.550781 27.152344 25.675781 27.988281 C 24.796875 28.828125 23.945312 29.6875 23.117188 30.574219 C 22.289062 31.460938 21.484375 32.371094 20.707031 33.300781 C 19.933594 34.234375 19.183594 35.1875 18.460938 36.160156 C 17.734375 37.132812 17.042969 38.128906 16.375 39.140625 C 15.707031 40.15625 15.070312 41.1875 14.460938 42.238281 C 13.855469 43.289062 13.277344 44.355469 12.726562 45.4375 C 12.179688 46.519531 11.664062 47.617188 11.175781 48.726562 C 10.691406 49.839844 10.238281 50.964844 9.816406 52.101562 C 9.394531 53.242188 9.003906 54.390625 8.644531 55.550781 C 8.289062 56.710938 7.964844 57.878906 7.675781 59.058594 C 7.382812 60.234375 7.125 61.421875 6.902344 62.613281 C 6.679688 63.804688 6.488281 65.003906 6.332031 66.207031 C 6.175781 67.410156 6.054688 68.617188 5.964844 69.828125 C 5.878906 71.039062 5.824219 72.253906 5.804688 73.464844 C 5.789062 74.679688 5.800781 75.894531 5.851562 77.105469 C 5.902344 78.316406 5.984375 79.527344 6.101562 80.738281 C 6.222656 81.945312 6.375 83.148438 6.558594 84.347656 C 6.746094 85.546875 6.964844 86.738281 7.21875 87.925781 C 7.472656 89.113281 7.761719 90.292969 8.082031 91.464844 C 8.402344 92.632812 8.753906 93.792969 9.140625 94.945312 C 9.527344 96.09375 9.945312 97.234375 10.394531 98.359375 C 10.847656 99.488281 11.328125 100.601562 11.84375 101.699219 C 12.355469 102.800781 12.902344 103.882812 13.476562 104.953125 C 14.050781 106.019531 14.65625 107.070312 15.289062 108.105469 C 15.925781 109.140625 16.585938 110.15625 17.28125 111.152344 C 17.972656 112.148438 18.691406 113.125 19.4375 114.082031 C 20.183594 115.035156 20.957031 115.96875 21.757812 116.882812 C 22.558594 117.792969 23.382812 118.683594 24.234375 119.546875 C 25.085938 120.414062 25.960938 121.253906 26.855469 122.066406 C 27.753906 122.882812 28.675781 123.671875 29.617188 124.4375 C 30.558594 125.199219 31.523438 125.933594 32.507812 126.644531 C 33.492188 127.351562 34.496094 128.03125 35.519531 128.683594 C 36.542969 129.335938 37.582031 129.957031 38.640625 130.550781 C 39.695312 131.140625 40.769531 131.703125 41.859375 132.234375 C 42.949219 132.765625 44.054688 133.265625 45.171875 133.734375 C 46.289062 134.203125 47.421875 134.640625 48.5625 135.046875 C 49.707031 135.449219 50.859375 135.824219 52.023438 136.164062 C 53.1875 136.5 54.359375 136.808594 55.542969 137.082031 C 56.722656 137.351562 57.910156 137.59375 59.105469 137.796875 C 60.300781 138.003906 61.5 138.175781 62.703125 138.3125 C 63.90625 138.449219 65.113281 138.550781 66.324219 138.621094 C 67.535156 138.6875 68.746094 138.722656 69.957031 138.722656 C 117.546875 139.316406 149.4375 86.328125 126.726562 44.539062 Z M 126.726562 44.539062 " fill-opacity="1" fill-rule="nonzero"/><path fill="#000000" d="M 69.957031 56.121094 C 71.957031 56.121094 73.898438 56.445312 75.789062 57.097656 C 76.078125 57.195312 76.371094 57.238281 76.675781 57.21875 C 76.976562 57.199219 77.265625 57.125 77.539062 56.992188 C 77.8125 56.855469 78.050781 56.675781 78.25 56.449219 C 78.453125 56.222656 78.601562 55.964844 78.703125 55.675781 C 79.707031 51.617188 72.570312 51.777344 69.960938 51.53125 C 39.5625 52.789062 39.566406 96.167969 69.960938 97.421875 C 70.710938 97.421875 71.457031 97.382812 72.203125 97.308594 C 72.949219 97.234375 73.691406 97.125 74.425781 96.976562 C 75.164062 96.832031 75.890625 96.648438 76.609375 96.429688 C 77.324219 96.210938 78.03125 95.957031 78.722656 95.667969 C 79.417969 95.382812 80.09375 95.058594 80.753906 94.707031 C 81.417969 94.351562 82.058594 93.964844 82.683594 93.546875 C 83.308594 93.128906 83.910156 92.683594 84.488281 92.207031 C 85.070312 91.730469 85.625 91.226562 86.15625 90.695312 C 86.683594 90.164062 87.1875 89.609375 87.664062 89.027344 C 88.140625 88.445312 88.585938 87.84375 89.003906 87.21875 C 89.421875 86.59375 89.804688 85.953125 90.160156 85.289062 C 90.515625 84.625 90.835938 83.949219 91.121094 83.253906 C 91.410156 82.558594 91.664062 81.855469 91.878906 81.136719 C 92.097656 80.417969 92.28125 79.6875 92.429688 78.953125 C 92.574219 78.214844 92.6875 77.472656 92.761719 76.726562 C 92.835938 75.976562 92.871094 75.230469 92.875 74.476562 C 92.640625 71.8125 92.792969 64.742188 88.757812 65.746094 C 88.472656 65.84375 88.214844 65.996094 87.984375 66.199219 C 87.757812 66.398438 87.578125 66.636719 87.445312 66.910156 C 87.3125 67.183594 87.234375 67.472656 87.21875 67.777344 C 87.199219 68.078125 87.238281 68.375 87.339844 68.664062 C 87.980469 70.546875 88.296875 72.484375 88.289062 74.476562 C 87.371094 98.792969 52.546875 98.792969 51.628906 74.476562 C 51.628906 73.875 51.65625 73.277344 51.71875 72.679688 C 51.777344 72.082031 51.867188 71.488281 51.984375 70.898438 C 52.101562 70.308594 52.246094 69.726562 52.421875 69.152344 C 52.597656 68.578125 52.796875 68.011719 53.027344 67.457031 C 53.257812 66.902344 53.515625 66.359375 53.796875 65.828125 C 54.082031 65.300781 54.390625 64.785156 54.722656 64.285156 C 55.058594 63.785156 55.414062 63.304688 55.792969 62.839844 C 56.175781 62.375 56.578125 61.929688 57.003906 61.503906 C 57.425781 61.078125 57.871094 60.675781 58.335938 60.292969 C 58.800781 59.914062 59.28125 59.554688 59.78125 59.222656 C 60.277344 58.886719 60.792969 58.578125 61.320312 58.296875 C 61.851562 58.011719 62.394531 57.753906 62.945312 57.523438 C 63.5 57.292969 64.066406 57.09375 64.640625 56.917969 C 65.214844 56.742188 65.796875 56.597656 66.382812 56.476562 C 66.972656 56.359375 67.566406 56.273438 68.164062 56.210938 C 68.761719 56.152344 69.359375 56.121094 69.957031 56.121094 Z M 69.957031 56.121094 " fill-opacity="1" fill-rule="nonzero"/><path fill="#000000" d="M 91.898438 39.453125 C 92.046875 39.1875 92.136719 38.902344 92.171875 38.597656 C 92.207031 38.296875 92.179688 38 92.097656 37.707031 C 92.015625 37.414062 91.878906 37.148438 91.6875 36.910156 C 91.5 36.671875 91.273438 36.480469 91.003906 36.332031 C 87.785156 34.546875 84.390625 33.195312 80.828125 32.269531 C 77.261719 31.347656 73.640625 30.882812 69.957031 30.882812 C 12.210938 33.273438 12.210938 115.683594 69.960938 118.074219 C 70.902344 118.074219 71.839844 118.042969 72.78125 117.984375 C 73.722656 117.921875 74.65625 117.832031 75.589844 117.710938 C 76.527344 117.589844 77.453125 117.4375 78.378906 117.253906 C 79.300781 117.074219 80.21875 116.859375 81.128906 116.621094 C 82.039062 116.378906 82.941406 116.105469 83.835938 115.808594 C 84.726562 115.507812 85.609375 115.179688 86.480469 114.820312 C 87.351562 114.464844 88.210938 114.078125 89.058594 113.664062 C 89.902344 113.25 90.734375 112.8125 91.554688 112.34375 C 92.371094 111.875 93.171875 111.382812 93.960938 110.863281 C 94.746094 110.34375 95.511719 109.796875 96.265625 109.230469 C 97.015625 108.660156 97.746094 108.066406 98.457031 107.449219 C 99.167969 106.832031 99.859375 106.191406 100.53125 105.53125 C 101.203125 104.867188 101.851562 104.1875 102.476562 103.480469 C 103.105469 102.777344 103.707031 102.054688 104.285156 101.308594 C 104.863281 100.566406 105.421875 99.804688 105.949219 99.027344 C 106.480469 98.246094 106.984375 97.449219 107.460938 96.636719 C 107.941406 95.828125 108.394531 95 108.816406 94.15625 C 109.242188 93.316406 109.640625 92.460938 110.007812 91.59375 C 110.378906 90.726562 110.71875 89.847656 111.03125 88.960938 C 111.34375 88.070312 111.628906 87.171875 111.882812 86.261719 C 112.136719 85.355469 112.359375 84.441406 112.554688 83.515625 C 112.75 82.59375 112.914062 81.667969 113.050781 80.734375 C 113.183594 79.800781 113.289062 78.863281 113.363281 77.921875 C 113.4375 76.984375 113.480469 76.042969 113.492188 75.097656 C 113.503906 74.15625 113.488281 73.214844 113.4375 72.273438 C 113.390625 71.332031 113.3125 70.390625 113.203125 69.453125 C 113.09375 68.519531 112.953125 67.585938 112.785156 66.660156 C 112.617188 65.730469 112.417969 64.808594 112.1875 63.894531 C 111.957031 62.980469 111.699219 62.074219 111.410156 61.175781 C 111.121094 60.277344 110.804688 59.390625 110.460938 58.515625 C 110.113281 57.636719 109.742188 56.773438 109.339844 55.917969 C 108.9375 55.066406 108.507812 54.226562 108.054688 53.402344 C 107.90625 53.136719 107.714844 52.90625 107.476562 52.714844 C 107.238281 52.523438 106.972656 52.386719 106.679688 52.304688 C 106.386719 52.21875 106.089844 52.191406 105.789062 52.226562 C 105.484375 52.261719 105.199219 52.351562 104.933594 52.5 C 104.667969 52.648438 104.4375 52.84375 104.25 53.082031 C 104.0625 53.320312 103.925781 53.585938 103.839844 53.878906 C 103.757812 54.171875 103.734375 54.472656 103.769531 54.773438 C 103.804688 55.078125 103.894531 55.363281 104.046875 55.628906 C 118.570312 80.851562 99.058594 113.988281 69.957031 113.484375 C 68.683594 113.480469 67.410156 113.417969 66.140625 113.292969 C 64.871094 113.164062 63.613281 112.976562 62.363281 112.726562 C 61.109375 112.476562 59.875 112.164062 58.65625 111.792969 C 57.433594 111.421875 56.234375 110.992188 55.058594 110.503906 C 53.878906 110.011719 52.730469 109.46875 51.605469 108.863281 C 50.480469 108.261719 49.386719 107.605469 48.328125 106.898438 C 47.265625 106.1875 46.242188 105.425781 45.257812 104.617188 C 44.273438 103.804688 43.328125 102.949219 42.425781 102.046875 C 41.523438 101.144531 40.667969 100.199219 39.859375 99.210938 C 39.050781 98.222656 38.292969 97.199219 37.582031 96.136719 C 36.875 95.078125 36.21875 93.984375 35.617188 92.855469 C 35.015625 91.730469 34.46875 90.578125 33.980469 89.398438 C 33.492188 88.21875 33.0625 87.019531 32.691406 85.796875 C 32.320312 84.574219 32.011719 83.335938 31.761719 82.085938 C 31.511719 80.832031 31.320312 79.570312 31.195312 78.300781 C 31.070312 77.027344 31.003906 75.753906 31.003906 74.476562 C 30.503906 45.339844 63.589844 25.800781 88.785156 40.347656 C 89.050781 40.496094 89.332031 40.585938 89.636719 40.621094 C 89.9375 40.65625 90.234375 40.632812 90.527344 40.546875 C 90.820312 40.464844 91.085938 40.328125 91.320312 40.136719 C 91.558594 39.945312 91.75 39.71875 91.898438 39.453125 Z M 91.898438 39.453125 " fill-opacity="1" fill-rule="nonzero"/><path fill="#000000" d="M 129.902344 30.675781 L 113.222656 47.378906 C 112.777344 47.820312 112.242188 48.039062 111.617188 48.046875 L 111.433594 48.046875 L 100.457031 47.195312 L 71.585938 76.105469 C 71.367188 76.316406 71.121094 76.472656 70.839844 76.585938 C 70.558594 76.695312 70.269531 76.75 69.96875 76.746094 C 69.667969 76.742188 69.378906 76.683594 69.101562 76.566406 C 68.824219 76.449219 68.582031 76.285156 68.367188 76.070312 C 68.15625 75.859375 67.992188 75.613281 67.875 75.335938 C 67.757812 75.058594 67.699219 74.769531 67.695312 74.46875 C 67.691406 74.164062 67.746094 73.875 67.855469 73.59375 C 67.964844 73.316406 68.125 73.066406 68.332031 72.847656 L 97.203125 43.9375 L 96.355469 32.949219 C 96.308594 32.25 96.53125 31.65625 97.019531 31.15625 L 113.703125 14.453125 C 114.023438 14.140625 114.398438 13.941406 114.835938 13.847656 C 115.269531 13.753906 115.699219 13.785156 116.117188 13.9375 C 116.535156 14.09375 116.878906 14.347656 117.152344 14.703125 C 117.421875 15.054688 117.578125 15.453125 117.621094 15.898438 L 118.378906 25.996094 L 128.460938 26.753906 C 128.902344 26.792969 129.300781 26.949219 129.65625 27.222656 C 130.007812 27.492188 130.261719 27.839844 130.417969 28.257812 C 130.570312 28.675781 130.601562 29.105469 130.507812 29.542969 C 130.414062 29.976562 130.214844 30.355469 129.902344 30.675781 Z M 129.902344 30.675781 " fill-opacity="1" fill-rule="nonzero"/><path fill="#000000" d="M 126.726562 44.539062 C 126.582031 44.273438 126.390625 44.046875 126.15625 43.859375 C 125.921875 43.671875 125.660156 43.535156 125.371094 43.449219 C 125.085938 43.363281 124.792969 43.335938 124.492188 43.367188 C 124.195312 43.394531 123.914062 43.480469 123.648438 43.621094 C 123.382812 43.765625 123.152344 43.949219 122.960938 44.179688 C 122.769531 44.410156 122.625 44.671875 122.535156 44.957031 C 122.445312 45.242188 122.414062 45.535156 122.4375 45.835938 C 122.460938 46.136719 122.542969 46.421875 122.675781 46.6875 C 143.753906 85.484375 114.140625 134.695312 69.957031 134.132812 C 68.007812 134.132812 66.0625 134.035156 64.121094 133.839844 C 62.179688 133.648438 60.253906 133.359375 58.339844 132.976562 C 56.425781 132.59375 54.539062 132.117188 52.671875 131.550781 C 50.804688 130.980469 48.972656 130.324219 47.167969 129.574219 C 45.367188 128.828125 43.605469 127.992188 41.886719 127.070312 C 40.167969 126.148438 38.496094 125.144531 36.875 124.058594 C 35.253906 122.972656 33.6875 121.8125 32.179688 120.570312 C 30.671875 119.332031 29.230469 118.023438 27.851562 116.640625 C 26.472656 115.261719 25.164062 113.816406 23.925781 112.304688 C 22.6875 110.796875 21.527344 109.230469 20.441406 107.605469 C 19.359375 105.980469 18.355469 104.308594 17.4375 102.585938 C 16.515625 100.863281 15.683594 99.101562 14.933594 97.296875 C 14.1875 95.492188 13.53125 93.65625 12.960938 91.789062 C 12.394531 89.917969 11.917969 88.027344 11.539062 86.113281 C 11.15625 84.195312 10.867188 82.265625 10.675781 80.324219 C 10.480469 78.378906 10.382812 76.429688 10.382812 74.476562 C 9.828125 30.234375 58.960938 0.582031 97.710938 21.691406 C 97.980469 21.832031 98.265625 21.917969 98.566406 21.945312 C 98.871094 21.976562 99.167969 21.945312 99.457031 21.855469 C 99.75 21.765625 100.011719 21.625 100.246094 21.433594 C 100.480469 21.238281 100.667969 21.007812 100.808594 20.738281 C 100.953125 20.46875 101.039062 20.183594 101.066406 19.878906 C 101.097656 19.578125 101.066406 19.28125 100.976562 18.988281 C 100.886719 18.699219 100.746094 18.4375 100.550781 18.199219 C 100.359375 17.964844 100.128906 17.777344 99.859375 17.636719 C 98.785156 17.070312 97.699219 16.535156 96.597656 16.03125 C 95.492188 15.527344 94.378906 15.054688 93.25 14.613281 C 92.117188 14.171875 90.976562 13.765625 89.824219 13.390625 C 88.671875 13.011719 87.511719 12.671875 86.339844 12.359375 C 85.167969 12.050781 83.988281 11.773438 82.800781 11.53125 C 81.613281 11.289062 80.417969 11.078125 79.21875 10.90625 C 78.019531 10.730469 76.816406 10.589844 75.609375 10.480469 C 74.402344 10.375 73.191406 10.300781 71.980469 10.265625 C 70.769531 10.226562 69.554688 10.222656 68.34375 10.253906 C 67.132812 10.28125 65.921875 10.347656 64.714844 10.445312 C 63.507812 10.546875 62.300781 10.679688 61.101562 10.847656 C 59.902344 11.015625 58.707031 11.214844 57.515625 11.453125 C 56.328125 11.6875 55.148438 11.957031 53.972656 12.257812 C 52.796875 12.5625 51.632812 12.894531 50.480469 13.265625 C 49.324219 13.632812 48.179688 14.035156 47.046875 14.46875 C 45.917969 14.902344 44.796875 15.367188 43.691406 15.863281 C 42.585938 16.359375 41.496094 16.886719 40.417969 17.445312 C 39.34375 18.003906 38.28125 18.59375 37.242188 19.214844 C 36.199219 19.832031 35.171875 20.480469 34.167969 21.15625 C 33.160156 21.835938 32.175781 22.539062 31.210938 23.273438 C 30.242188 24.003906 29.296875 24.765625 28.375 25.550781 C 27.453125 26.339844 26.550781 27.152344 25.675781 27.988281 C 24.796875 28.828125 23.945312 29.6875 23.117188 30.574219 C 22.289062 31.460938 21.484375 32.371094 20.707031 33.300781 C 19.933594 34.234375 19.183594 35.1875 18.460938 36.160156 C 17.734375 37.132812 17.042969 38.128906 16.375 39.140625 C 15.707031 40.15625 15.070312 41.1875 14.460938 42.238281 C 13.855469 43.289062 13.277344 44.355469 12.726562 45.4375 C 12.179688 46.519531 11.664062 47.617188 11.175781 48.726562 C 10.691406 49.839844 10.238281 50.964844 9.816406 52.101562 C 9.394531 53.242188 9.003906 54.390625 8.644531 55.550781 C 8.289062 56.710938 7.964844 57.878906 7.675781 59.058594 C 7.382812 60.234375 7.125 61.421875 6.902344 62.613281 C 6.679688 63.804688 6.488281 65.003906 6.332031 66.207031 C 6.175781 67.410156 6.054688 68.617188 5.964844 69.828125 C 5.878906 71.039062 5.824219 72.253906 5.804688 73.464844 C 5.789062 74.679688 5.800781 75.894531 5.851562 77.105469 C 5.902344 78.316406 5.984375 79.527344 6.101562 80.738281 C 6.222656 81.945312 6.375 83.148438 6.558594 84.347656 C 6.746094 85.546875 6.964844 86.738281 7.21875 87.925781 C 7.472656 89.113281 7.761719 90.292969 8.082031 91.464844 C 8.402344 92.632812 8.753906 93.792969 9.140625 94.945312 C 9.527344 96.09375 9.945312 97.234375 10.394531 98.359375 C 10.847656 99.488281 11.328125 100.601562 11.84375 101.699219 C 12.355469 102.800781 12.902344 103.882812 13.476562 104.953125 C 14.050781 106.019531 14.65625 107.070312 15.289062 108.105469 C 15.925781 109.140625 16.585938 110.15625 17.28125 111.152344 C 17.972656 112.148438 18.691406 113.125 19.4375 114.082031 C 20.183594 115.035156 20.957031 115.96875 21.757812 116.882812 C 22.558594 117.792969 23.382812 118.683594 24.234375 119.546875 C 25.085938 120.414062 25.960938 121.253906 26.855469 122.066406 C 27.753906 122.882812 28.675781 123.671875 29.617188 124.4375 C 30.558594 125.199219 31.523438 125.933594 32.507812 126.644531 C 33.492188 127.351562 34.496094 128.03125 35.519531 128.683594 C 36.542969 129.335938 37.582031 129.957031 38.640625 130.550781 C 39.695312 131.140625 40.769531 131.703125 41.859375 132.234375 C 42.949219 132.765625 44.054688 133.265625 45.171875 133.734375 C 46.289062 134.203125 47.421875 134.640625 48.5625 135.046875 C 49.707031 135.449219 50.859375 135.824219 52.023438 136.164062 C 53.1875 136.5 54.359375 136.808594 55.542969 137.082031 C 56.722656 137.351562 57.910156 137.59375 59.105469 137.796875 C 60.300781 138.003906 61.5 138.175781 62.703125 138.3125 C 63.90625 138.449219 65.113281 138.550781 66.324219 138.621094 C 67.535156 138.6875 68.746094 138.722656 69.957031 138.722656 C 117.546875 139.316406 149.4375 86.328125 126.726562 44.539062 Z M 126.726562 44.539062 " fill-opacity="1" fill-rule="nonzero"/><path fill="#000000" d="M 69.957031 56.121094 C 71.957031 56.121094 73.898438 56.445312 75.789062 57.097656 C 76.078125 57.195312 76.371094 57.238281 76.675781 57.21875 C 76.976562 57.199219 77.265625 57.125 77.539062 56.992188 C 77.8125 56.855469 78.050781 56.675781 78.25 56.449219 C 78.453125 56.222656 78.601562 55.964844 78.703125 55.675781 C 79.707031 51.617188 72.570312 51.777344 69.960938 51.53125 C 39.5625 52.789062 39.566406 96.167969 69.960938 97.421875 C 70.710938 97.421875 71.457031 97.382812 72.203125 97.308594 C 72.949219 97.234375 73.691406 97.125 74.425781 96.976562 C 75.164062 96.832031 75.890625 96.648438 76.609375 96.429688 C 77.324219 96.210938 78.03125 95.957031 78.722656 95.667969 C 79.417969 95.382812 80.09375 95.058594 80.753906 94.707031 C 81.417969 94.351562 82.058594 93.964844 82.683594 93.546875 C 83.308594 93.128906 83.910156 92.683594 84.488281 92.207031 C 85.070312 91.730469 85.625 91.226562 86.15625 90.695312 C 86.683594 90.164062 87.1875 89.609375 87.664062 89.027344 C 88.140625 88.445312 88.585938 87.84375 89.003906 87.21875 C 89.421875 86.59375 89.804688 85.953125 90.160156 85.289062 C 90.515625 84.625 90.835938 83.949219 91.121094 83.253906 C 91.410156 82.558594 91.664062 81.855469 91.878906 81.136719 C 92.097656 80.417969 92.28125 79.6875 92.429688 78.953125 C 92.574219 78.214844 92.6875 77.472656 92.761719 76.726562 C 92.835938 75.976562 92.871094 75.230469 92.875 74.476562 C 92.640625 71.8125 92.792969 64.742188 88.757812 65.746094 C 88.472656 65.84375 88.214844 65.996094 87.984375 66.199219 C 87.757812 66.398438 87.578125 66.636719 87.445312 66.910156 C 87.3125 67.183594 87.234375 67.472656 87.21875 67.777344 C 87.199219 68.078125 87.238281 68.375 87.339844 68.664062 C 87.980469 70.546875 88.296875 72.484375 88.289062 74.476562 C 87.371094 98.792969 52.546875 98.792969 51.628906 74.476562 C 51.628906 73.875 51.65625 73.277344 51.71875 72.679688 C 51.777344 72.082031 51.867188 71.488281 51.984375 70.898438 C 52.101562 70.308594 52.246094 69.726562 52.421875 69.152344 C 52.597656 68.578125 52.796875 68.011719 53.027344 67.457031 C 53.257812 66.902344 53.515625 66.359375 53.796875 65.828125 C 54.082031 65.300781 54.390625 64.785156 54.722656 64.285156 C 55.058594 63.785156 55.414062 63.304688 55.792969 62.839844 C 56.175781 62.375 56.578125 61.929688 57.003906 61.503906 C 57.425781 61.078125 57.871094 60.675781 58.335938 60.292969 C 58.800781 59.914062 59.28125 59.554688 59.78125 59.222656 C 60.277344 58.886719 60.792969 58.578125 61.320312 58.296875 C 61.851562 58.011719 62.394531 57.753906 62.945312 57.523438 C 63.5 57.292969 64.066406 57.09375 64.640625 56.917969 C 65.214844 56.742188 65.796875 56.597656 66.382812 56.476562 C 66.972656 56.359375 67.566406 56.273438 68.164062 56.210938 C 68.761719 56.152344 69.359375 56.121094 69.957031 56.121094 Z M 69.957031 56.121094 " fill-opacity="1" fill-rule="nonzero"/><path fill="#000000" d="M 91.898438 39.453125 C 92.046875 39.1875 92.136719 38.902344 92.171875 38.597656 C 92.207031 38.296875 92.179688 38 92.097656 37.707031 C 92.015625 37.414062 91.878906 37.148438 91.6875 36.910156 C 91.5 36.671875 91.273438 36.480469 91.003906 36.332031 C 87.785156 34.546875 84.390625 33.195312 80.828125 32.269531 C 77.261719 31.347656 73.640625 30.882812 69.957031 30.882812 C 12.210938 33.273438 12.210938 115.683594 69.960938 118.074219 C 70.902344 118.074219 71.839844 118.042969 72.78125 117.984375 C 73.722656 117.921875 74.65625 117.832031 75.589844 117.710938 C 76.527344 117.589844 77.453125 117.4375 78.378906 117.253906 C 79.300781 117.074219 80.21875 116.859375 81.128906 116.621094 C 82.039062 116.378906 82.941406 116.105469 83.835938 115.808594 C 84.726562 115.507812 85.609375 115.179688 86.480469 114.820312 C 87.351562 114.464844 88.210938 114.078125 89.058594 113.664062 C 89.902344 113.25 90.734375 112.8125 91.554688 112.34375 C 92.371094 111.875 93.171875 111.382812 93.960938 110.863281 C 94.746094 110.34375 95.511719 109.796875 96.265625 109.230469 C 97.015625 108.660156 97.746094 108.066406 98.457031 107.449219 C 99.167969 106.832031 99.859375 106.191406 100.53125 105.53125 C 101.203125 104.867188 101.851562 104.1875 102.476562 103.480469 C 103.105469 102.777344 103.707031 102.054688 104.285156 101.308594 C 104.863281 100.566406 105.421875 99.804688 105.949219 99.027344 C 106.480469 98.246094 106.984375 97.449219 107.460938 96.636719 C 107.941406 95.828125 108.394531 95 108.816406 94.15625 C 109.242188 93.316406 109.640625 92.460938 110.007812 91.59375 C 110.378906 90.726562 110.71875 89.847656 111.03125 88.960938 C 111.34375 88.070312 111.628906 87.171875 111.882812 86.261719 C 112.136719 85.355469 112.359375 84.441406 112.554688 83.515625 C 112.75 82.59375 112.914062 81.667969 113.050781 80.734375 C 113.183594 79.800781 113.289062 78.863281 113.363281 77.921875 C 113.4375 76.984375 113.480469 76.042969 113.492188 75.097656 C 113.503906 74.15625 113.488281 73.214844 113.4375 72.273438 C 113.390625 71.332031 113.3125 70.390625 113.203125 69.453125 C 113.09375 68.519531 112.953125 67.585938 112.785156 66.660156 C 112.617188 65.730469 112.417969 64.808594 112.1875 63.894531 C 111.957031 62.980469 111.699219 62.074219 111.410156 61.175781 C 111.121094 60.277344 110.804688 59.390625 110.460938 58.515625 C 110.113281 57.636719 109.742188 56.773438 109.339844 55.917969 C 108.9375 55.066406 108.507812 54.226562 108.054688 53.402344 C 107.90625 53.136719 107.714844 52.90625 107.476562 52.714844 C 107.238281 52.523438 106.972656 52.386719 106.679688 52.304688 C 106.386719 52.21875 106.089844 52.191406 105.789062 52.226562 C 105.484375 52.261719 105.199219 52.351562 104.933594 52.5 C 104.667969 52.648438 104.4375 52.84375 104.25 53.082031 C 104.0625 53.320312 103.925781 53.585938 103.839844 53.878906 C 103.757812 54.171875 103.734375 54.472656 103.769531 54.773438 C 103.804688 55.078125 103.894531 55.363281 104.046875 55.628906 C 118.570312 80.851562 99.058594 113.988281 69.957031 113.484375 C 68.683594 113.480469 67.410156 113.417969 66.140625 113.292969 C 64.871094 113.164062 63.613281 112.976562 62.363281 112.726562 C 61.109375 112.476562 59.875 112.164062 58.65625 111.792969 C 57.433594 111.421875 56.234375 110.992188 55.058594 110.503906 C 53.878906 110.011719 52.730469 109.46875 51.605469 108.863281 C 50.480469 108.261719 49.386719 107.605469 48.328125 106.898438 C 47.265625 106.1875 46.242188 105.425781 45.257812 104.617188 C 44.273438 103.804688 43.328125 102.949219 42.425781 102.046875 C 41.523438 101.144531 40.667969 100.199219 39.859375 99.210938 C 39.050781 98.222656 38.292969 97.199219 37.582031 96.136719 C 36.875 95.078125 36.21875 93.984375 35.617188 92.855469 C 35.015625 91.730469 34.46875 90.578125 33.980469 89.398438 C 33.492188 88.21875 33.0625 87.019531 32.691406 85.796875 C 32.320312 84.574219 32.011719 83.335938 31.761719 82.085938 C 31.511719 80.832031 31.320312 79.570312 31.195312 78.300781 C 31.070312 77.027344 31.003906 75.753906 31.003906 74.476562 C 30.503906 45.339844 63.589844 25.800781 88.785156 40.347656 C 89.050781 40.496094 89.332031 40.585938 89.636719 40.621094 C 89.9375 40.65625 90.234375 40.632812 90.527344 40.546875 C 90.820312 40.464844 91.085938 40.328125 91.320312 40.136719 C 91.558594 39.945312 91.75 39.71875 91.898438 39.453125 Z M 91.898438 39.453125 " fill-opacity="1" fill-rule="nonzero"/><path fill="#000000" d="M 129.902344 30.675781 L 113.222656 47.378906 C 112.777344 47.820312 112.242188 48.039062 111.617188 48.046875 L 111.433594 48.046875 L 100.457031 47.195312 L 71.585938 76.105469 C 71.367188 76.316406 71.121094 76.472656 70.839844 76.585938 C 70.558594 76.695312 70.269531 76.75 69.96875 76.746094 C 69.667969 76.742188 69.378906 76.683594 69.101562 76.566406 C 68.824219 76.449219 68.582031 76.285156 68.367188 76.070312 C 68.15625 75.859375 67.992188 75.613281 67.875 75.335938 C 67.757812 75.058594 67.699219 74.769531 67.695312 74.46875 C 67.691406 74.164062 67.746094 73.875 67.855469 73.59375 C 67.964844 73.316406 68.125 73.066406 68.332031 72.847656 L 97.203125 43.9375 L 96.355469 32.949219 C 96.308594 32.25 96.53125 31.65625 97.019531 31.15625 L 113.703125 14.453125 C 114.023438 14.140625 114.398438 13.941406 114.835938 13.847656 C 115.269531 13.753906 115.699219 13.785156 116.117188 13.9375 C 116.535156 14.09375 116.878906 14.347656 117.152344 14.703125 C 117.421875 15.054688 117.578125 15.453125 117.621094 15.898438 L 118.378906 25.996094 L 128.460938 26.753906 C 128.902344 26.792969 129.300781 26.949219 129.65625 27.222656 C 130.007812 27.492188 130.261719 27.839844 130.417969 28.257812 C 130.570312 28.675781 130.601562 29.105469 130.507812 29.542969 C 130.414062 29.976562 130.214844 30.355469 129.902344 30.675781 Z M 129.902344 30.675781 " fill-opacity="1" fill-rule="nonzero"/></svg>