<svg xmlns="http://www.w3.org/2000/svg" xmlns:xlink="http://www.w3.org/1999/xlink" width="200" zoomAndPan="magnify" viewBox="0 0 150 149.999998" height="200" preserveAspectRatio="xMidYMid meet" version="1.0"><path fill="#100f0d" d="M 89.3125 16.53125 C 89.554688 16.601562 89.789062 16.628906 90.03125 16.628906 C 91.097656 16.628906 92.078125 15.941406 92.40625 14.863281 L 95.289062 5.25 C 95.6875 3.941406 94.9375 2.5625 93.621094 2.164062 C 92.308594 1.777344 90.921875 2.515625 90.523438 3.832031 L 87.644531 13.4375 C 87.257812 14.746094 88.003906 16.132812 89.3125 16.53125 " fill-opacity="1" fill-rule="nonzero"/><path fill="#100f0d" d="M 105.6875 20.5 C 106.054688 20.703125 106.464844 20.800781 106.863281 20.800781 C 107.746094 20.800781 108.597656 20.335938 109.054688 19.511719 L 113.855469 10.652344 C 114.515625 9.441406 114.070312 7.9375 112.855469 7.277344 C 111.652344 6.628906 110.152344 7.074219 109.492188 8.277344 L 104.6875 17.132812 C 104.027344 18.335938 104.476562 19.851562 105.6875 20.5 " fill-opacity="1" fill-rule="nonzero"/><path fill="#100f0d" d="M 124.273438 28.601562 C 124.984375 28.601562 125.691406 28.300781 126.175781 27.71875 L 132.707031 19.964844 C 133.597656 18.917969 133.460938 17.347656 132.414062 16.464844 C 131.355469 15.582031 129.792969 15.71875 128.910156 16.765625 L 122.382812 24.515625 C 121.5 25.5625 121.636719 27.136719 122.683594 28.019531 C 123.148438 28.40625 123.710938 28.601562 124.273438 28.601562 " fill-opacity="1" fill-rule="nonzero"/><path fill="#100f0d" d="M 139.429688 40.941406 C 139.992188 40.941406 140.554688 40.746094 141.019531 40.359375 L 148.710938 33.898438 C 149.757812 33.015625 149.894531 31.453125 149.011719 30.394531 C 148.128906 29.347656 146.566406 29.222656 145.519531 30.09375 L 137.828125 36.554688 C 136.78125 37.4375 136.644531 39.007812 137.527344 40.058594 C 138.011719 40.640625 138.71875 40.941406 139.429688 40.941406 " fill-opacity="1" fill-rule="nonzero"/><path fill="#100f0d" d="M 23.328125 27.71875 C 23.8125 28.300781 24.519531 28.601562 25.226562 28.601562 C 25.789062 28.601562 26.355469 28.40625 26.820312 28.019531 C 27.867188 27.136719 28.003906 25.5625 27.121094 24.515625 L 20.589844 16.765625 C 19.707031 15.71875 18.136719 15.582031 17.089844 16.464844 C 16.042969 17.347656 15.90625 18.917969 16.796875 19.964844 L 23.328125 27.71875 " fill-opacity="1" fill-rule="nonzero"/><path fill="#100f0d" d="M 40.449219 19.511719 C 40.90625 20.335938 41.757812 20.800781 42.640625 20.800781 C 43.039062 20.800781 43.445312 20.703125 43.816406 20.5 C 45.027344 19.851562 45.472656 18.335938 44.816406 17.132812 L 40.011719 8.277344 C 39.351562 7.074219 37.847656 6.628906 36.644531 7.277344 C 35.433594 7.9375 34.988281 9.441406 35.648438 10.652344 L 40.449219 19.511719 " fill-opacity="1" fill-rule="nonzero"/><path fill="#100f0d" d="M 8.5625 40.425781 C 9.007812 40.773438 9.542969 40.941406 10.074219 40.941406 C 10.824219 40.941406 11.550781 40.609375 12.042969 39.980469 C 12.878906 38.894531 12.683594 37.332031 11.597656 36.488281 L 4.253906 30.820312 C 3.167969 29.976562 1.605469 30.179688 0.761719 31.269531 C -0.0703125 32.355469 0.132812 33.90625 1.207031 34.742188 L 8.5625 40.425781 " fill-opacity="1" fill-rule="nonzero"/><path fill="#100f0d" d="M 57.097656 14.863281 C 57.425781 15.941406 58.40625 16.628906 59.472656 16.628906 C 59.714844 16.628906 59.949219 16.601562 60.191406 16.53125 C 61.5 16.132812 62.246094 14.746094 61.859375 13.4375 L 58.976562 3.832031 C 58.582031 2.515625 57.203125 1.777344 55.882812 2.164062 C 54.5625 2.5625 53.816406 3.941406 54.214844 5.25 L 57.097656 14.863281 " fill-opacity="1" fill-rule="nonzero"/><path fill="#100f0d" d="M 74.75 15.398438 C 76.121094 15.398438 77.234375 14.28125 77.234375 12.914062 L 77.234375 2.980469 C 77.234375 1.613281 76.121094 0.496094 74.75 0.496094 C 73.382812 0.496094 72.269531 1.613281 72.269531 2.980469 L 72.269531 12.914062 C 72.269531 14.28125 73.382812 15.398438 74.75 15.398438 " fill-opacity="1" fill-rule="nonzero"/><path fill="#100f0d" d="M 40.992188 92.539062 C 27.710938 86.613281 15.605469 77.132812 5.894531 65.066406 C 10.753906 59.011719 16.207031 53.617188 22.09375 48.992188 C 23.179688 48.136719 23.367188 46.578125 22.523438 45.5 C 21.667969 44.414062 20.117188 44.230469 19.03125 45.082031 C 12.324219 50.339844 6.175781 56.558594 0.773438 63.542969 C 0.0742188 64.4375 0.0742188 65.695312 0.773438 66.589844 C 11.171875 80.035156 24.382812 90.578125 38.972656 97.078125 C 39.304688 97.226562 39.644531 97.292969 39.984375 97.292969 C 40.933594 97.292969 41.835938 96.75 42.253906 95.816406 C 42.804688 94.566406 42.242188 93.101562 40.992188 92.539062 " fill-opacity="1" fill-rule="nonzero"/><path fill="#100f0d" d="M 68.367188 78.511719 C 63.199219 76.046875 59.851562 70.769531 59.851562 65.066406 C 59.851562 56.847656 66.535156 50.164062 74.75 50.164062 C 75.1875 50.164062 75.613281 50.183594 76.050781 50.222656 C 75.207031 51.6875 74.75 53.367188 74.75 55.132812 C 74.75 60.613281 79.203125 65.066406 84.683594 65.066406 C 86.441406 65.066406 88.128906 64.609375 89.59375 63.765625 C 89.632812 64.203125 89.652344 64.628906 89.652344 65.066406 C 89.652344 70.769531 86.304688 76.046875 81.136719 78.511719 C 80.269531 78.929688 79.71875 79.792969 79.71875 80.753906 L 79.71875 99.835938 L 69.785156 99.835938 L 69.785156 80.753906 C 69.785156 79.792969 69.230469 78.929688 68.367188 78.511719 Z M 102.070312 107.285156 C 102.070312 108.652344 100.953125 109.769531 99.585938 109.769531 L 49.917969 109.769531 C 48.550781 109.769531 47.433594 108.652344 47.433594 107.285156 C 47.433594 105.917969 48.550781 104.800781 49.917969 104.800781 L 99.585938 104.800781 C 100.953125 104.800781 102.070312 105.917969 102.070312 107.285156 Z M 74.75 144.535156 C 63.800781 144.535156 54.882812 135.621094 54.882812 124.667969 L 94.621094 124.667969 C 94.621094 135.621094 85.703125 144.535156 74.75 144.535156 Z M 148.730469 66.589844 C 149.429688 65.695312 149.429688 64.4375 148.730469 63.542969 C 129.929688 39.261719 102.960938 25.332031 74.75 25.332031 C 57.960938 25.332031 41.371094 30.257812 26.769531 39.582031 C 25.617188 40.320312 25.277344 41.863281 26.015625 43.015625 C 26.75 44.171875 28.292969 44.511719 29.449219 43.773438 C 35.832031 39.6875 42.632812 36.546875 49.65625 34.292969 C 40.730469 41.582031 35.015625 52.667969 35.015625 65.066406 C 35.015625 77.222656 40.429688 88.4375 49.917969 96.03125 L 49.917969 99.835938 C 45.804688 99.835938 42.46875 103.171875 42.46875 107.285156 C 42.46875 111.398438 45.804688 114.734375 49.917969 114.734375 L 99.585938 114.734375 C 100.953125 114.734375 102.070312 115.851562 102.070312 117.21875 C 102.070312 118.585938 100.953125 119.703125 99.585938 119.703125 L 49.917969 119.703125 C 48.550781 119.703125 47.433594 120.816406 47.433594 122.183594 C 47.433594 123.554688 48.550781 124.667969 49.917969 124.667969 C 49.917969 138.355469 61.054688 149.503906 74.75 149.503906 C 88.449219 149.503906 99.585938 138.355469 99.585938 124.667969 C 103.699219 124.667969 107.035156 121.332031 107.035156 117.21875 C 107.035156 115.296875 106.289062 113.570312 105.097656 112.25 C 106.289062 110.933594 107.035156 109.207031 107.035156 107.285156 C 107.035156 103.171875 103.699219 99.835938 99.585938 99.835938 L 99.585938 96.03125 C 109.074219 88.4375 114.488281 77.222656 114.488281 65.066406 C 114.488281 62.261719 114.175781 59.410156 113.554688 56.585938 C 113.265625 55.238281 111.945312 54.386719 110.605469 54.6875 C 109.269531 54.976562 108.414062 56.296875 108.703125 57.644531 C 109.25 60.117188 109.519531 62.621094 109.519531 65.066406 C 109.519531 76.058594 104.445312 86.183594 95.609375 92.832031 C 94.988281 93.296875 94.621094 94.035156 94.621094 94.820312 L 94.621094 99.835938 L 84.683594 99.835938 L 84.683594 82.246094 C 90.769531 78.726562 94.621094 72.136719 94.621094 65.066406 C 94.621094 62.71875 94.191406 60.378906 93.347656 58.128906 C 93.019531 57.238281 92.214844 56.617188 91.261719 56.53125 C 90.300781 56.433594 89.398438 56.898438 88.90625 57.703125 C 87.992188 59.207031 86.414062 60.097656 84.683594 60.097656 C 81.949219 60.097656 79.71875 57.867188 79.71875 55.132812 C 79.71875 53.40625 80.609375 51.824219 82.113281 50.914062 C 82.917969 50.417969 83.375 49.496094 83.289062 48.554688 C 83.203125 47.605469 82.582031 46.800781 81.6875 46.46875 C 79.4375 45.625 77.097656 45.199219 74.75 45.199219 C 63.800781 45.199219 54.882812 54.113281 54.882812 65.066406 C 54.882812 72.136719 58.734375 78.726562 64.816406 82.246094 L 64.816406 99.835938 L 54.882812 99.835938 L 54.882812 94.820312 C 54.882812 94.035156 54.515625 93.296875 53.894531 92.832031 C 45.058594 86.183594 39.984375 76.058594 39.984375 65.066406 C 39.984375 45.898438 55.582031 30.296875 74.75 30.296875 C 87.703125 30.296875 99.5 37.4375 105.53125 48.933594 C 106.171875 50.144531 107.675781 50.613281 108.890625 49.972656 C 110.101562 49.332031 110.566406 47.835938 109.925781 46.625 C 107.394531 41.792969 103.960938 37.640625 99.90625 34.3125 C 116.476562 39.667969 131.667969 50.222656 143.609375 65.066406 C 133.898438 77.132812 121.792969 86.613281 108.511719 92.539062 C 107.257812 93.101562 106.695312 94.566406 107.25 95.816406 C 107.667969 96.75 108.570312 97.292969 109.519531 97.292969 C 109.859375 97.292969 110.199219 97.226562 110.527344 97.078125 C 125.117188 90.578125 138.320312 80.035156 148.730469 66.589844 " fill-opacity="1" fill-rule="nonzero"/><path fill="#100f0d" d="M 126.175781 98.855469 C 125.292969 97.808594 123.722656 97.679688 122.683594 98.5625 C 121.636719 99.445312 121.5 101.007812 122.382812 102.066406 L 128.910156 109.816406 C 129.40625 110.398438 130.105469 110.699219 130.8125 110.699219 C 131.375 110.699219 131.949219 110.503906 132.414062 110.117188 C 133.460938 109.226562 133.597656 107.664062 132.707031 106.617188 L 126.175781 98.855469 " fill-opacity="1" fill-rule="nonzero"/><path fill="#100f0d" d="M 141.019531 86.222656 C 139.972656 85.339844 138.410156 85.476562 137.527344 86.523438 C 136.644531 87.582031 136.78125 89.144531 137.828125 90.027344 L 145.519531 96.488281 C 145.984375 96.875 146.546875 97.070312 147.109375 97.070312 C 147.820312 97.070312 148.527344 96.769531 149.011719 96.175781 C 149.894531 95.128906 149.757812 93.558594 148.710938 92.675781 L 141.019531 86.222656 " fill-opacity="1" fill-rule="nonzero"/><path fill="#100f0d" d="M 23.328125 98.855469 L 16.796875 106.617188 C 15.90625 107.664062 16.042969 109.226562 17.089844 110.117188 C 17.554688 110.503906 18.128906 110.699219 18.691406 110.699219 C 19.398438 110.699219 20.097656 110.398438 20.589844 109.816406 L 27.121094 102.066406 C 28.003906 101.007812 27.867188 99.445312 26.820312 98.5625 C 25.78125 97.679688 24.210938 97.816406 23.328125 98.855469 " fill-opacity="1" fill-rule="nonzero"/><path fill="#100f0d" d="M 8.5625 86.15625 L 1.207031 91.832031 C 0.132812 92.664062 -0.0703125 94.226562 0.761719 95.3125 C 1.257812 95.945312 1.996094 96.285156 2.730469 96.285156 C 3.265625 96.285156 3.800781 96.109375 4.253906 95.761719 L 11.597656 90.09375 C 12.683594 89.25 12.878906 87.6875 12.042969 86.601562 C 11.199219 85.515625 9.640625 85.320312 8.5625 86.15625 " fill-opacity="1" fill-rule="nonzero"/><path fill="#100f0d" d="M 89.3125 16.53125 C 89.554688 16.601562 89.789062 16.628906 90.03125 16.628906 C 91.097656 16.628906 92.078125 15.941406 92.40625 14.863281 L 95.289062 5.25 C 95.6875 3.941406 94.9375 2.5625 93.621094 2.164062 C 92.308594 1.777344 90.921875 2.515625 90.523438 3.832031 L 87.644531 13.4375 C 87.257812 14.746094 88.003906 16.132812 89.3125 16.53125 " fill-opacity="1" fill-rule="nonzero"/><path fill="#100f0d" d="M 105.6875 20.5 C 106.054688 20.703125 106.464844 20.800781 106.863281 20.800781 C 107.746094 20.800781 108.597656 20.335938 109.054688 19.511719 L 113.855469 10.652344 C 114.515625 9.441406 114.070312 7.9375 112.855469 7.277344 C 111.652344 6.628906 110.152344 7.074219 109.492188 8.277344 L 104.6875 17.132812 C 104.027344 18.335938 104.476562 19.851562 105.6875 20.5 " fill-opacity="1" fill-rule="nonzero"/><path fill="#100f0d" d="M 124.273438 28.601562 C 124.984375 28.601562 125.691406 28.300781 126.175781 27.71875 L 132.707031 19.964844 C 133.597656 18.917969 133.460938 17.347656 132.414062 16.464844 C 131.355469 15.582031 129.792969 15.71875 128.910156 16.765625 L 122.382812 24.515625 C 121.5 25.5625 121.636719 27.136719 122.683594 28.019531 C 123.148438 28.40625 123.710938 28.601562 124.273438 28.601562 " fill-opacity="1" fill-rule="nonzero"/><path fill="#100f0d" d="M 139.429688 40.941406 C 139.992188 40.941406 140.554688 40.746094 141.019531 40.359375 L 148.710938 33.898438 C 149.757812 33.015625 149.894531 31.453125 149.011719 30.394531 C 148.128906 29.347656 146.566406 29.222656 145.519531 30.09375 L 137.828125 36.554688 C 136.78125 37.4375 136.644531 39.007812 137.527344 40.058594 C 138.011719 40.640625 138.71875 40.941406 139.429688 40.941406 " fill-opacity="1" fill-rule="nonzero"/><path fill="#100f0d" d="M 23.328125 27.71875 C 23.8125 28.300781 24.519531 28.601562 25.226562 28.601562 C 25.789062 28.601562 26.355469 28.40625 26.820312 28.019531 C 27.867188 27.136719 28.003906 25.5625 27.121094 24.515625 L 20.589844 16.765625 C 19.707031 15.71875 18.136719 15.582031 17.089844 16.464844 C 16.042969 17.347656 15.90625 18.917969 16.796875 19.964844 L 23.328125 27.71875 " fill-opacity="1" fill-rule="nonzero"/><path fill="#100f0d" d="M 40.449219 19.511719 C 40.90625 20.335938 41.757812 20.800781 42.640625 20.800781 C 43.039062 20.800781 43.445312 20.703125 43.816406 20.5 C 45.027344 19.851562 45.472656 18.335938 44.816406 17.132812 L 40.011719 8.277344 C 39.351562 7.074219 37.847656 6.628906 36.644531 7.277344 C 35.433594 7.9375 34.988281 9.441406 35.648438 10.652344 L 40.449219 19.511719 " fill-opacity="1" fill-rule="nonzero"/><path fill="#100f0d" d="M 8.5625 40.425781 C 9.007812 40.773438 9.542969 40.941406 10.074219 40.941406 C 10.824219 40.941406 11.550781 40.609375 12.042969 39.980469 C 12.878906 38.894531 12.683594 37.332031 11.597656 36.488281 L 4.253906 30.820312 C 3.167969 29.976562 1.605469 30.179688 0.761719 31.269531 C -0.0703125 32.355469 0.132812 33.90625 1.207031 34.742188 L 8.5625 40.425781 " fill-opacity="1" fill-rule="nonzero"/><path fill="#100f0d" d="M 57.097656 14.863281 C 57.425781 15.941406 58.40625 16.628906 59.472656 16.628906 C 59.714844 16.628906 59.949219 16.601562 60.191406 16.53125 C 61.5 16.132812 62.246094 14.746094 61.859375 13.4375 L 58.976562 3.832031 C 58.582031 2.515625 57.203125 1.777344 55.882812 2.164062 C 54.5625 2.5625 53.816406 3.941406 54.214844 5.25 L 57.097656 14.863281 " fill-opacity="1" fill-rule="nonzero"/><path fill="#100f0d" d="M 74.75 15.398438 C 76.121094 15.398438 77.234375 14.28125 77.234375 12.914062 L 77.234375 2.980469 C 77.234375 1.613281 76.121094 0.496094 74.75 0.496094 C 73.382812 0.496094 72.269531 1.613281 72.269531 2.980469 L 72.269531 12.914062 C 72.269531 14.28125 73.382812 15.398438 74.75 15.398438 " fill-opacity="1" fill-rule="nonzero"/><path fill="#100f0d" d="M 40.992188 92.539062 C 27.710938 86.613281 15.605469 77.132812 5.894531 65.066406 C 10.753906 59.011719 16.207031 53.617188 22.09375 48.992188 C 23.179688 48.136719 23.367188 46.578125 22.523438 45.5 C 21.667969 44.414062 20.117188 44.230469 19.03125 45.082031 C 12.324219 50.339844 6.175781 56.558594 0.773438 63.542969 C 0.0742188 64.4375 0.0742188 65.695312 0.773438 66.589844 C 11.171875 80.035156 24.382812 90.578125 38.972656 97.078125 C 39.304688 97.226562 39.644531 97.292969 39.984375 97.292969 C 40.933594 97.292969 41.835938 96.75 42.253906 95.816406 C 42.804688 94.566406 42.242188 93.101562 40.992188 92.539062 " fill-opacity="1" fill-rule="nonzero"/><path fill="#100f0d" d="M 68.367188 78.511719 C 63.199219 76.046875 59.851562 70.769531 59.851562 65.066406 C 59.851562 56.847656 66.535156 50.164062 74.75 50.164062 C 75.1875 50.164062 75.613281 50.183594 76.050781 50.222656 C 75.207031 51.6875 74.75 53.367188 74.75 55.132812 C 74.75 60.613281 79.203125 65.066406 84.683594 65.066406 C 86.441406 65.066406 88.128906 64.609375 89.59375 63.765625 C 89.632812 64.203125 89.652344 64.628906 89.652344 65.066406 C 89.652344 70.769531 86.304688 76.046875 81.136719 78.511719 C 80.269531 78.929688 79.71875 79.792969 79.71875 80.753906 L 79.71875 99.835938 L 69.785156 99.835938 L 69.785156 80.753906 C 69.785156 79.792969 69.230469 78.929688 68.367188 78.511719 Z M 102.070312 107.285156 C 102.070312 108.652344 100.953125 109.769531 99.585938 109.769531 L 49.917969 109.769531 C 48.550781 109.769531 47.433594 108.652344 47.433594 107.285156 C 47.433594 105.917969 48.550781 104.800781 49.917969 104.800781 L 99.585938 104.800781 C 100.953125 104.800781 102.070312 105.917969 102.070312 107.285156 Z M 74.75 144.535156 C 63.800781 144.535156 54.882812 135.621094 54.882812 124.667969 L 94.621094 124.667969 C 94.621094 135.621094 85.703125 144.535156 74.75 144.535156 Z M 148.730469 66.589844 C 149.429688 65.695312 149.429688 64.4375 148.730469 63.542969 C 129.929688 39.261719 102.960938 25.332031 74.75 25.332031 C 57.960938 25.332031 41.371094 30.257812 26.769531 39.582031 C 25.617188 40.320312 25.277344 41.863281 26.015625 43.015625 C 26.75 44.171875 28.292969 44.511719 29.449219 43.773438 C 35.832031 39.6875 42.632812 36.546875 49.65625 34.292969 C 40.730469 41.582031 35.015625 52.667969 35.015625 65.066406 C 35.015625 77.222656 40.429688 88.4375 49.917969 96.03125 L 49.917969 99.835938 C 45.804688 99.835938 42.46875 103.171875 42.46875 107.285156 C 42.46875 111.398438 45.804688 114.734375 49.917969 114.734375 L 99.585938 114.734375 C 100.953125 114.734375 102.070312 115.851562 102.070312 117.21875 C 102.070312 118.585938 100.953125 119.703125 99.585938 119.703125 L 49.917969 119.703125 C 48.550781 119.703125 47.433594 120.816406 47.433594 122.183594 C 47.433594 123.554688 48.550781 124.667969 49.917969 124.667969 C 49.917969 138.355469 61.054688 149.503906 74.75 149.503906 C 88.449219 149.503906 99.585938 138.355469 99.585938 124.667969 C 103.699219 124.667969 107.035156 121.332031 107.035156 117.21875 C 107.035156 115.296875 106.289062 113.570312 105.097656 112.25 C 106.289062 110.933594 107.035156 109.207031 107.035156 107.285156 C 107.035156 103.171875 103.699219 99.835938 99.585938 99.835938 L 99.585938 96.03125 C 109.074219 88.4375 114.488281 77.222656 114.488281 65.066406 C 114.488281 62.261719 114.175781 59.410156 113.554688 56.585938 C 113.265625 55.238281 111.945312 54.386719 110.605469 54.6875 C 109.269531 54.976562 108.414062 56.296875 108.703125 57.644531 C 109.25 60.117188 109.519531 62.621094 109.519531 65.066406 C 109.519531 76.058594 104.445312 86.183594 95.609375 92.832031 C 94.988281 93.296875 94.621094 94.035156 94.621094 94.820312 L 94.621094 99.835938 L 84.683594 99.835938 L 84.683594 82.246094 C 90.769531 78.726562 94.621094 72.136719 94.621094 65.066406 C 94.621094 62.71875 94.191406 60.378906 93.347656 58.128906 C 93.019531 57.238281 92.214844 56.617188 91.261719 56.53125 C 90.300781 56.433594 89.398438 56.898438 88.90625 57.703125 C 87.992188 59.207031 86.414062 60.097656 84.683594 60.097656 C 81.949219 60.097656 79.71875 57.867188 79.71875 55.132812 C 79.71875 53.40625 80.609375 51.824219 82.113281 50.914062 C 82.917969 50.417969 83.375 49.496094 83.289062 48.554688 C 83.203125 47.605469 82.582031 46.800781 81.6875 46.46875 C 79.4375 45.625 77.097656 45.199219 74.75 45.199219 C 63.800781 45.199219 54.882812 54.113281 54.882812 65.066406 C 54.882812 72.136719 58.734375 78.726562 64.816406 82.246094 L 64.816406 99.835938 L 54.882812 99.835938 L 54.882812 94.820312 C 54.882812 94.035156 54.515625 93.296875 53.894531 92.832031 C 45.058594 86.183594 39.984375 76.058594 39.984375 65.066406 C 39.984375 45.898438 55.582031 30.296875 74.75 30.296875 C 87.703125 30.296875 99.5 37.4375 105.53125 48.933594 C 106.171875 50.144531 107.675781 50.613281 108.890625 49.972656 C 110.101562 49.332031 110.566406 47.835938 109.925781 46.625 C 107.394531 41.792969 103.960938 37.640625 99.90625 34.3125 C 116.476562 39.667969 131.667969 50.222656 143.609375 65.066406 C 133.898438 77.132812 121.792969 86.613281 108.511719 92.539062 C 107.257812 93.101562 106.695312 94.566406 107.25 95.816406 C 107.667969 96.75 108.570312 97.292969 109.519531 97.292969 C 109.859375 97.292969 110.199219 97.226562 110.527344 97.078125 C 125.117188 90.578125 138.320312 80.035156 148.730469 66.589844 " fill-opacity="1" fill-rule="nonzero"/><path fill="#100f0d" d="M 126.175781 98.855469 C 125.292969 97.808594 123.722656 97.679688 122.683594 98.5625 C 121.636719 99.445312 121.5 101.007812 122.382812 102.066406 L 128.910156 109.816406 C 129.40625 110.398438 130.105469 110.699219 130.8125 110.699219 C 131.375 110.699219 131.949219 110.503906 132.414062 110.117188 C 133.460938 109.226562 133.597656 107.664062 132.707031 106.617188 L 126.175781 98.855469 " fill-opacity="1" fill-rule="nonzero"/><path fill="#100f0d" d="M 141.019531 86.222656 C 139.972656 85.339844 138.410156 85.476562 137.527344 86.523438 C 136.644531 87.582031 136.78125 89.144531 137.828125 90.027344 L 145.519531 96.488281 C 145.984375 96.875 146.546875 97.070312 147.109375 97.070312 C 147.820312 97.070312 148.527344 96.769531 149.011719 96.175781 C 149.894531 95.128906 149.757812 93.558594 148.710938 92.675781 L 141.019531 86.222656 " fill-opacity="1" fill-rule="nonzero"/><path fill="#100f0d" d="M 23.328125 98.855469 L 16.796875 106.617188 C 15.90625 107.664062 16.042969 109.226562 17.089844 110.117188 C 17.554688 110.503906 18.128906 110.699219 18.691406 110.699219 C 19.398438 110.699219 20.097656 110.398438 20.589844 109.816406 L 27.121094 102.066406 C 28.003906 101.007812 27.867188 99.445312 26.820312 98.5625 C 25.78125 97.679688 24.210938 97.816406 23.328125 98.855469 " fill-opacity="1" fill-rule="nonzero"/><path fill="#100f0d" d="M 8.5625 86.15625 L 1.207031 91.832031 C 0.132812 92.664062 -0.0703125 94.226562 0.761719 95.3125 C 1.257812 95.945312 1.996094 96.285156 2.730469 96.285156 C 3.265625 96.285156 3.800781 96.109375 4.253906 95.761719 L 11.597656 90.09375 C 12.683594 89.25 12.878906 87.6875 12.042969 86.601562 C 11.199219 85.515625 9.640625 85.320312 8.5625 86.15625 " fill-opacity="1" fill-rule="nonzero"/></svg>