<svg xmlns="http://www.w3.org/2000/svg" xmlns:xlink="http://www.w3.org/1999/xlink" width="200" zoomAndPan="magnify" viewBox="0 0 150 128.249994" height="171" preserveAspectRatio="xMidYMid meet" version="1.0"><defs><clipPath id="bbd56e70ff"><path d="M 1 0 L 99 0 L 99 127.503906 L 1 127.503906 Z M 1 0 " clip-rule="nonzero"/></clipPath><clipPath id="7e55345ec9"><path d="M 1 0 L 99 0 L 99 127.503906 L 1 127.503906 Z M 1 0 " clip-rule="nonzero"/></clipPath></defs><path fill="#000000" d="M 148.378906 27.332031 C 149.1875 26.289062 148.957031 24.898438 147.917969 24.089844 C 146.878906 23.277344 145.492188 23.507812 144.6875 24.550781 C 137.871094 33.585938 130.828125 30.921875 122.746094 27.910156 C 118.011719 26.171875 112.929688 24.203125 108.199219 25.476562 C 108.199219 25.015625 108.082031 24.667969 108.082031 24.203125 C 107.390625 20.613281 103.695312 16.445312 103.347656 15.980469 C 102.886719 15.519531 102.308594 15.285156 101.617188 15.171875 C 100.921875 15.171875 100.34375 15.402344 99.882812 15.867188 C 99.421875 16.328125 95.609375 20.496094 95.035156 24.203125 C 94.917969 24.78125 94.917969 25.246094 94.917969 25.824219 C 89.605469 24.320312 83.949219 26.289062 79.097656 28.140625 C 75.636719 29.414062 72.402344 30.574219 69.398438 30.804688 C 69.285156 30.804688 69.054688 30.804688 68.9375 30.804688 C 65.128906 30.921875 61.777344 29.53125 58.316406 24.667969 C 57.621094 23.625 56.121094 23.394531 55.082031 24.089844 C 54.042969 24.78125 53.8125 26.289062 54.503906 27.332031 C 58.082031 32.425781 62.007812 34.625 65.9375 35.207031 L 54.503906 67.050781 C 54.273438 67.398438 54.042969 67.863281 54.042969 68.328125 C 54.042969 68.328125 54.042969 68.441406 54.042969 68.441406 C 54.042969 68.558594 54.042969 68.558594 54.042969 68.675781 C 54.042969 68.789062 54.042969 68.789062 54.042969 68.90625 C 54.042969 68.90625 54.042969 69.019531 54.042969 69.019531 C 54.042969 69.019531 54.042969 69.019531 54.042969 69.136719 C 54.15625 69.484375 54.15625 69.832031 54.273438 70.179688 C 56.582031 77.359375 63.164062 82.222656 70.554688 82.222656 C 77.945312 82.222656 84.527344 77.242188 86.605469 70.179688 C 86.71875 69.832031 86.835938 69.484375 86.835938 69.019531 C 86.835938 69.019531 86.835938 68.90625 86.835938 68.90625 C 86.835938 68.789062 86.835938 68.675781 86.835938 68.675781 C 86.835938 68.558594 86.835938 68.558594 86.835938 68.441406 C 86.835938 68.328125 86.835938 68.328125 86.835938 68.210938 C 86.835938 68.09375 86.835938 67.980469 86.71875 67.980469 C 86.71875 67.980469 86.71875 67.863281 86.71875 67.863281 L 74.25 34.511719 C 76.445312 33.933594 78.636719 33.121094 80.714844 32.425781 C 88.914062 29.414062 94.226562 27.910156 99.304688 34.625 L 99.304688 82.570312 C 97.691406 83.382812 96.535156 85.117188 96.535156 87.203125 L 96.535156 91.023438 C 88.335938 92.644531 84.410156 97.742188 83.949219 100.40625 C 83.949219 100.519531 83.949219 100.753906 83.949219 100.867188 C 83.949219 102.140625 84.988281 103.183594 86.257812 103.183594 L 117.203125 103.183594 C 118.472656 103.183594 119.511719 102.140625 119.511719 100.867188 C 119.511719 100.753906 119.511719 100.519531 119.511719 100.40625 C 119.050781 97.625 114.777344 92.644531 106.925781 91.140625 L 106.925781 87.203125 C 106.925781 85.234375 105.773438 83.496094 104.15625 82.570312 L 104.15625 34.511719 C 104.617188 33.816406 105.078125 33.121094 105.542969 32.542969 C 105.886719 32.308594 106.234375 31.964844 106.582031 31.617188 C 110.277344 28.371094 114.777344 29.761719 121.359375 32.195312 C 123.554688 33.003906 125.980469 33.933594 128.519531 34.511719 L 116.28125 67.746094 C 116.28125 67.746094 116.28125 67.863281 116.28125 67.863281 C 116.28125 67.980469 116.28125 67.980469 116.164062 68.09375 C 116.164062 68.210938 116.164062 68.210938 116.164062 68.328125 C 116.164062 68.441406 116.164062 68.441406 116.164062 68.558594 C 116.164062 68.675781 116.164062 68.675781 116.164062 68.789062 C 116.164062 68.789062 116.164062 68.90625 116.164062 68.90625 C 116.164062 68.90625 116.164062 68.90625 116.164062 69.019531 C 116.28125 69.367188 116.28125 69.714844 116.394531 70.0625 C 118.359375 77.128906 125.054688 82.109375 132.445312 82.109375 C 139.835938 82.109375 146.417969 77.128906 148.496094 70.0625 C 148.613281 69.714844 148.726562 69.367188 148.726562 68.90625 C 148.726562 68.90625 148.726562 68.789062 148.726562 68.789062 C 148.726562 68.675781 148.726562 68.558594 148.726562 68.558594 C 148.726562 68.558594 148.726562 68.441406 148.726562 68.441406 C 148.726562 68.441406 148.726562 68.328125 148.726562 68.328125 C 148.726562 67.863281 148.613281 67.398438 148.265625 66.9375 L 136.257812 35.089844 C 140.414062 34.511719 144.570312 32.308594 148.378906 27.332031 Z M 59.929688 66.011719 L 70.324219 37.058594 L 81.292969 66.011719 Z M 70.554688 77.589844 C 65.820312 77.589844 61.546875 74.8125 59.585938 70.644531 L 81.523438 70.644531 C 79.675781 74.8125 75.402344 77.589844 70.554688 77.589844 Z M 99.539062 24.78125 C 99.652344 23.742188 100.578125 22.234375 101.5 20.960938 C 102.425781 22.234375 103.230469 23.625 103.464844 24.78125 C 103.695312 26.289062 103.347656 27.445312 102.886719 28.140625 C 102.65625 28.371094 102.308594 28.605469 102.078125 28.953125 C 101.847656 29.066406 101.617188 29.183594 101.382812 29.183594 C 100.921875 29.183594 100.578125 28.953125 100.230469 28.605469 C 99.652344 27.792969 99.304688 26.402344 99.539062 24.78125 Z M 112.46875 98.4375 L 90.53125 98.4375 C 92.492188 96.816406 96.074219 95.078125 101.617188 95.078125 C 106.925781 95.078125 110.390625 96.816406 112.46875 98.4375 Z M 101.617188 90.445312 C 101.382812 90.445312 101.269531 90.445312 101.152344 90.445312 L 101.152344 87.085938 C 101.152344 86.738281 101.382812 86.507812 101.617188 86.507812 C 101.847656 86.507812 102.078125 86.738281 102.078125 87.085938 L 102.078125 90.445312 C 101.847656 90.445312 101.730469 90.445312 101.617188 90.445312 Z M 121.824219 66.011719 L 132.214844 37.058594 L 143.183594 66.011719 Z M 132.5625 77.589844 C 127.828125 77.589844 123.554688 74.8125 121.589844 70.644531 L 143.53125 70.644531 C 141.566406 74.8125 137.296875 77.589844 132.5625 77.589844 Z M 132.5625 77.589844 " fill-opacity="1" fill-rule="nonzero"/><path fill="#000000" d="M 108.542969 67.632812 C 112.816406 60.800781 114.894531 52.460938 114.203125 44.007812 C 113.972656 40.765625 113.277344 37.523438 112.238281 34.277344 C 111.199219 34.164062 110.390625 34.277344 109.8125 34.742188 C 109.46875 35.207031 109.003906 35.554688 108.660156 35.902344 L 108.660156 38.214844 C 109.121094 40.300781 109.582031 42.386719 109.699219 44.355469 C 110.042969 48.40625 109.582031 52.34375 108.660156 56.167969 L 108.660156 67.632812 Z M 108.542969 67.632812 " fill-opacity="1" fill-rule="nonzero"/><g clip-path="url(#bbd56e70ff)"><path fill="#000000" d="M 5.429688 75.738281 C 5.546875 75.738281 5.777344 75.855469 5.890625 75.855469 L 6.355469 75.96875 C 7.160156 76.316406 7.96875 76.550781 8.316406 76.894531 C 8.433594 77.359375 7.738281 78.980469 7.394531 79.90625 C 6.355469 82.222656 4.738281 85.8125 7.738281 88.128906 C 8.199219 88.476562 8.664062 88.707031 9.242188 88.824219 C 8.894531 89.402344 8.546875 90.097656 8.546875 90.910156 C 8.664062 93.574219 11.320312 94.152344 12.472656 94.382812 C 12.359375 94.960938 12.242188 96.121094 12.128906 96.929688 C 11.78125 99.480469 11.433594 102.722656 12.242188 105.734375 C 12.820312 107.585938 13.972656 109.207031 15.589844 110.480469 C 17.554688 111.871094 19.980469 112.566406 22.519531 112.332031 C 30.949219 111.640625 39.722656 108.742188 47.921875 104.109375 C 48.382812 111.871094 47.34375 117.890625 42.265625 123.683594 C 41.6875 124.378906 41.570312 125.304688 41.917969 126.113281 C 42.265625 126.925781 43.074219 127.503906 43.996094 127.503906 L 95.957031 127.503906 C 96.996094 127.503906 97.921875 126.808594 98.152344 125.882812 C 98.382812 124.957031 98.035156 123.796875 97.226562 123.335938 C 93.878906 121.136719 91.800781 117.890625 90.992188 113.605469 C 90.644531 111.871094 90.53125 109.902344 90.644531 107.933594 L 86.027344 107.933594 C 85.910156 110.132812 86.027344 112.332031 86.488281 114.417969 C 87.066406 117.777344 88.335938 120.554688 90.070312 122.988281 L 48.5 122.988281 C 52.425781 116.617188 53.003906 109.785156 52.195312 101.5625 C 56.582031 98.550781 58.660156 95.425781 58.429688 92.296875 C 58.316406 91.023438 57.277344 90.097656 55.890625 90.214844 C 54.621094 90.328125 53.695312 91.488281 53.8125 92.761719 C 53.925781 93.921875 52.308594 96.351562 47.460938 99.132812 L 47.113281 99.363281 C 38.914062 104.226562 30.253906 107.238281 21.941406 107.933594 C 20.441406 108.046875 19.054688 107.703125 18.132812 107.007812 C 17.324219 106.425781 16.746094 105.617188 16.398438 104.691406 C 15.820312 102.722656 16.167969 100.058594 16.398438 97.742188 C 16.746094 95.425781 16.976562 93.574219 16.285156 92.066406 C 15.820312 90.910156 14.78125 90.445312 13.859375 90.214844 C 14.78125 89.289062 15.589844 88.246094 15.359375 86.738281 C 14.898438 84.65625 12.703125 84.65625 11.320312 84.539062 C 11.085938 84.539062 10.625 84.539062 10.28125 84.539062 C 10.394531 83.84375 10.855469 82.800781 11.203125 81.992188 C 12.242188 79.675781 13.742188 76.203125 11.203125 73.769531 C 10.046875 72.726562 8.777344 72.265625 7.507812 71.800781 L 7.046875 71.683594 C 6.816406 71.570312 6.699219 71.570312 6.46875 71.453125 C 6.007812 71.335938 5.429688 71.105469 5.3125 70.988281 C 5.3125 70.988281 5.3125 70.875 5.3125 70.757812 C 6.007812 69.253906 7.160156 67.746094 8.433594 66.011719 C 9.703125 64.503906 11.085938 62.652344 12.242188 60.566406 C 12.472656 60.105469 12.703125 59.757812 12.933594 59.292969 C 14.898438 55.820312 17.207031 51.996094 16.398438 47.945312 C 15.246094 41.574219 15.820312 36.132812 18.476562 30.574219 C 27.253906 11.464844 44.574219 6.71875 51.617188 5.558594 C 54.734375 5.09375 57.96875 4.75 61.203125 4.75 C 61.203125 4.75 61.203125 4.75 61.316406 4.75 C 67.550781 4.75 73.554688 5.675781 78.984375 7.296875 C 80.136719 7.644531 81.292969 8.105469 82.449219 8.570312 C 86.488281 10.191406 90.300781 12.621094 93.648438 15.519531 C 94.570312 14.246094 95.496094 13.203125 95.957031 12.738281 C 96.1875 12.507812 96.417969 12.277344 96.652344 12.042969 C 92.839844 8.800781 88.683594 6.136719 84.0625 4.285156 C 82.792969 3.820312 81.523438 3.359375 80.253906 2.894531 C 74.941406 0.925781 68.589844 0 61.894531 0 C 61.894531 0 61.894531 0 61.777344 0 C 58.316406 0 54.851562 0.347656 51.386719 0.8125 C 43.648438 2.085938 24.480469 7.296875 14.78125 28.371094 C 11.894531 34.859375 11.085938 41.34375 12.472656 48.640625 C 12.933594 50.957031 11.203125 53.964844 9.472656 56.863281 C 9.242188 57.324219 9.007812 57.789062 8.664062 58.136719 C 7.625 59.871094 6.46875 61.492188 5.199219 63 C 3.699219 64.851562 2.3125 66.707031 1.386719 68.90625 C 0.8125 70.410156 0.925781 72.148438 1.734375 73.421875 C 2.890625 74.8125 4.390625 75.390625 5.429688 75.738281 Z M 5.429688 75.738281 " fill-opacity="1" fill-rule="nonzero"/></g><path fill="#000000" d="M 148.378906 27.332031 C 149.1875 26.289062 148.957031 24.898438 147.917969 24.089844 C 146.878906 23.277344 145.492188 23.507812 144.6875 24.550781 C 137.871094 33.585938 130.828125 30.921875 122.746094 27.910156 C 118.011719 26.171875 112.929688 24.203125 108.199219 25.476562 C 108.199219 25.015625 108.082031 24.667969 108.082031 24.203125 C 107.390625 20.613281 103.695312 16.445312 103.347656 15.980469 C 102.886719 15.519531 102.308594 15.285156 101.617188 15.171875 C 100.921875 15.171875 100.34375 15.402344 99.882812 15.867188 C 99.421875 16.328125 95.609375 20.496094 95.035156 24.203125 C 94.917969 24.78125 94.917969 25.246094 94.917969 25.824219 C 89.605469 24.320312 83.949219 26.289062 79.097656 28.140625 C 75.636719 29.414062 72.402344 30.574219 69.398438 30.804688 C 69.285156 30.804688 69.054688 30.804688 68.9375 30.804688 C 65.128906 30.921875 61.777344 29.53125 58.316406 24.667969 C 57.621094 23.625 56.121094 23.394531 55.082031 24.089844 C 54.042969 24.78125 53.8125 26.289062 54.503906 27.332031 C 58.082031 32.425781 62.007812 34.625 65.9375 35.207031 L 54.503906 67.050781 C 54.273438 67.398438 54.042969 67.863281 54.042969 68.328125 C 54.042969 68.328125 54.042969 68.441406 54.042969 68.441406 C 54.042969 68.558594 54.042969 68.558594 54.042969 68.675781 C 54.042969 68.789062 54.042969 68.789062 54.042969 68.90625 C 54.042969 68.90625 54.042969 69.019531 54.042969 69.019531 C 54.042969 69.019531 54.042969 69.019531 54.042969 69.136719 C 54.15625 69.484375 54.15625 69.832031 54.273438 70.179688 C 56.582031 77.359375 63.164062 82.222656 70.554688 82.222656 C 77.945312 82.222656 84.527344 77.242188 86.605469 70.179688 C 86.71875 69.832031 86.835938 69.484375 86.835938 69.019531 C 86.835938 69.019531 86.835938 68.90625 86.835938 68.90625 C 86.835938 68.789062 86.835938 68.675781 86.835938 68.675781 C 86.835938 68.558594 86.835938 68.558594 86.835938 68.441406 C 86.835938 68.328125 86.835938 68.328125 86.835938 68.210938 C 86.835938 68.09375 86.835938 67.980469 86.71875 67.980469 C 86.71875 67.980469 86.71875 67.863281 86.71875 67.863281 L 74.25 34.511719 C 76.445312 33.933594 78.636719 33.121094 80.714844 32.425781 C 88.914062 29.414062 94.226562 27.910156 99.304688 34.625 L 99.304688 82.570312 C 97.691406 83.382812 96.535156 85.117188 96.535156 87.203125 L 96.535156 91.023438 C 88.335938 92.644531 84.410156 97.742188 83.949219 100.40625 C 83.949219 100.519531 83.949219 100.753906 83.949219 100.867188 C 83.949219 102.140625 84.988281 103.183594 86.257812 103.183594 L 117.203125 103.183594 C 118.472656 103.183594 119.511719 102.140625 119.511719 100.867188 C 119.511719 100.753906 119.511719 100.519531 119.511719 100.40625 C 119.050781 97.625 114.777344 92.644531 106.925781 91.140625 L 106.925781 87.203125 C 106.925781 85.234375 105.773438 83.496094 104.15625 82.570312 L 104.15625 34.511719 C 104.617188 33.816406 105.078125 33.121094 105.542969 32.542969 C 105.886719 32.308594 106.234375 31.964844 106.582031 31.617188 C 110.277344 28.371094 114.777344 29.761719 121.359375 32.195312 C 123.554688 33.003906 125.980469 33.933594 128.519531 34.511719 L 116.28125 67.746094 C 116.28125 67.746094 116.28125 67.863281 116.28125 67.863281 C 116.28125 67.980469 116.28125 67.980469 116.164062 68.09375 C 116.164062 68.210938 116.164062 68.210938 116.164062 68.328125 C 116.164062 68.441406 116.164062 68.441406 116.164062 68.558594 C 116.164062 68.675781 116.164062 68.675781 116.164062 68.789062 C 116.164062 68.789062 116.164062 68.90625 116.164062 68.90625 C 116.164062 68.90625 116.164062 68.90625 116.164062 69.019531 C 116.28125 69.367188 116.28125 69.714844 116.394531 70.0625 C 118.359375 77.128906 125.054688 82.109375 132.445312 82.109375 C 139.835938 82.109375 146.417969 77.128906 148.496094 70.0625 C 148.613281 69.714844 148.726562 69.367188 148.726562 68.90625 C 148.726562 68.90625 148.726562 68.789062 148.726562 68.789062 C 148.726562 68.675781 148.726562 68.558594 148.726562 68.558594 C 148.726562 68.558594 148.726562 68.441406 148.726562 68.441406 C 148.726562 68.441406 148.726562 68.328125 148.726562 68.328125 C 148.726562 67.863281 148.613281 67.398438 148.265625 66.9375 L 136.257812 35.089844 C 140.414062 34.511719 144.570312 32.308594 148.378906 27.332031 Z M 59.929688 66.011719 L 70.324219 37.058594 L 81.292969 66.011719 Z M 70.554688 77.589844 C 65.820312 77.589844 61.546875 74.8125 59.585938 70.644531 L 81.523438 70.644531 C 79.675781 74.8125 75.402344 77.589844 70.554688 77.589844 Z M 99.539062 24.78125 C 99.652344 23.742188 100.578125 22.234375 101.5 20.960938 C 102.425781 22.234375 103.230469 23.625 103.464844 24.78125 C 103.695312 26.289062 103.347656 27.445312 102.886719 28.140625 C 102.65625 28.371094 102.308594 28.605469 102.078125 28.953125 C 101.847656 29.066406 101.617188 29.183594 101.382812 29.183594 C 100.921875 29.183594 100.578125 28.953125 100.230469 28.605469 C 99.652344 27.792969 99.304688 26.402344 99.539062 24.78125 Z M 112.46875 98.4375 L 90.53125 98.4375 C 92.492188 96.816406 96.074219 95.078125 101.617188 95.078125 C 106.925781 95.078125 110.390625 96.816406 112.46875 98.4375 Z M 101.617188 90.445312 C 101.382812 90.445312 101.269531 90.445312 101.152344 90.445312 L 101.152344 87.085938 C 101.152344 86.738281 101.382812 86.507812 101.617188 86.507812 C 101.847656 86.507812 102.078125 86.738281 102.078125 87.085938 L 102.078125 90.445312 C 101.847656 90.445312 101.730469 90.445312 101.617188 90.445312 Z M 121.824219 66.011719 L 132.214844 37.058594 L 143.183594 66.011719 Z M 132.5625 77.589844 C 127.828125 77.589844 123.554688 74.8125 121.589844 70.644531 L 143.53125 70.644531 C 141.566406 74.8125 137.296875 77.589844 132.5625 77.589844 Z M 132.5625 77.589844 " fill-opacity="1" fill-rule="nonzero"/><path fill="#000000" d="M 108.542969 67.632812 C 112.816406 60.800781 114.894531 52.460938 114.203125 44.007812 C 113.972656 40.765625 113.277344 37.523438 112.238281 34.277344 C 111.199219 34.164062 110.390625 34.277344 109.8125 34.742188 C 109.46875 35.207031 109.003906 35.554688 108.660156 35.902344 L 108.660156 38.214844 C 109.121094 40.300781 109.582031 42.386719 109.699219 44.355469 C 110.042969 48.40625 109.582031 52.34375 108.660156 56.167969 L 108.660156 67.632812 Z M 108.542969 67.632812 " fill-opacity="1" fill-rule="nonzero"/><g clip-path="url(#7e55345ec9)"><path fill="#000000" d="M 5.429688 75.738281 C 5.546875 75.738281 5.777344 75.855469 5.890625 75.855469 L 6.355469 75.96875 C 7.160156 76.316406 7.96875 76.550781 8.316406 76.894531 C 8.433594 77.359375 7.738281 78.980469 7.394531 79.90625 C 6.355469 82.222656 4.738281 85.8125 7.738281 88.128906 C 8.199219 88.476562 8.664062 88.707031 9.242188 88.824219 C 8.894531 89.402344 8.546875 90.097656 8.546875 90.910156 C 8.664062 93.574219 11.320312 94.152344 12.472656 94.382812 C 12.359375 94.960938 12.242188 96.121094 12.128906 96.929688 C 11.78125 99.480469 11.433594 102.722656 12.242188 105.734375 C 12.820312 107.585938 13.972656 109.207031 15.589844 110.480469 C 17.554688 111.871094 19.980469 112.566406 22.519531 112.332031 C 30.949219 111.640625 39.722656 108.742188 47.921875 104.109375 C 48.382812 111.871094 47.34375 117.890625 42.265625 123.683594 C 41.6875 124.378906 41.570312 125.304688 41.917969 126.113281 C 42.265625 126.925781 43.074219 127.503906 43.996094 127.503906 L 95.957031 127.503906 C 96.996094 127.503906 97.921875 126.808594 98.152344 125.882812 C 98.382812 124.957031 98.035156 123.796875 97.226562 123.335938 C 93.878906 121.136719 91.800781 117.890625 90.992188 113.605469 C 90.644531 111.871094 90.53125 109.902344 90.644531 107.933594 L 86.027344 107.933594 C 85.910156 110.132812 86.027344 112.332031 86.488281 114.417969 C 87.066406 117.777344 88.335938 120.554688 90.070312 122.988281 L 48.5 122.988281 C 52.425781 116.617188 53.003906 109.785156 52.195312 101.5625 C 56.582031 98.550781 58.660156 95.425781 58.429688 92.296875 C 58.316406 91.023438 57.277344 90.097656 55.890625 90.214844 C 54.621094 90.328125 53.695312 91.488281 53.8125 92.761719 C 53.925781 93.921875 52.308594 96.351562 47.460938 99.132812 L 47.113281 99.363281 C 38.914062 104.226562 30.253906 107.238281 21.941406 107.933594 C 20.441406 108.046875 19.054688 107.703125 18.132812 107.007812 C 17.324219 106.425781 16.746094 105.617188 16.398438 104.691406 C 15.820312 102.722656 16.167969 100.058594 16.398438 97.742188 C 16.746094 95.425781 16.976562 93.574219 16.285156 92.066406 C 15.820312 90.910156 14.78125 90.445312 13.859375 90.214844 C 14.78125 89.289062 15.589844 88.246094 15.359375 86.738281 C 14.898438 84.65625 12.703125 84.65625 11.320312 84.539062 C 11.085938 84.539062 10.625 84.539062 10.28125 84.539062 C 10.394531 83.84375 10.855469 82.800781 11.203125 81.992188 C 12.242188 79.675781 13.742188 76.203125 11.203125 73.769531 C 10.046875 72.726562 8.777344 72.265625 7.507812 71.800781 L 7.046875 71.683594 C 6.816406 71.570312 6.699219 71.570312 6.46875 71.453125 C 6.007812 71.335938 5.429688 71.105469 5.3125 70.988281 C 5.3125 70.988281 5.3125 70.875 5.3125 70.757812 C 6.007812 69.253906 7.160156 67.746094 8.433594 66.011719 C 9.703125 64.503906 11.085938 62.652344 12.242188 60.566406 C 12.472656 60.105469 12.703125 59.757812 12.933594 59.292969 C 14.898438 55.820312 17.207031 51.996094 16.398438 47.945312 C 15.246094 41.574219 15.820312 36.132812 18.476562 30.574219 C 27.253906 11.464844 44.574219 6.71875 51.617188 5.558594 C 54.734375 5.09375 57.96875 4.75 61.203125 4.75 C 61.203125 4.75 61.203125 4.75 61.316406 4.75 C 67.550781 4.75 73.554688 5.675781 78.984375 7.296875 C 80.136719 7.644531 81.292969 8.105469 82.449219 8.570312 C 86.488281 10.191406 90.300781 12.621094 93.648438 15.519531 C 94.570312 14.246094 95.496094 13.203125 95.957031 12.738281 C 96.1875 12.507812 96.417969 12.277344 96.652344 12.042969 C 92.839844 8.800781 88.683594 6.136719 84.0625 4.285156 C 82.792969 3.820312 81.523438 3.359375 80.253906 2.894531 C 74.941406 0.925781 68.589844 0 61.894531 0 C 61.894531 0 61.894531 0 61.777344 0 C 58.316406 0 54.851562 0.347656 51.386719 0.8125 C 43.648438 2.085938 24.480469 7.296875 14.78125 28.371094 C 11.894531 34.859375 11.085938 41.34375 12.472656 48.640625 C 12.933594 50.957031 11.203125 53.964844 9.472656 56.863281 C 9.242188 57.324219 9.007812 57.789062 8.664062 58.136719 C 7.625 59.871094 6.46875 61.492188 5.199219 63 C 3.699219 64.851562 2.3125 66.707031 1.386719 68.90625 C 0.8125 70.410156 0.925781 72.148438 1.734375 73.421875 C 2.890625 74.8125 4.390625 75.390625 5.429688 75.738281 Z M 5.429688 75.738281 " fill-opacity="1" fill-rule="nonzero"/></g></svg>